HIERARCHY
ROOT mixamorig:Hips
{
	OFFSET 0.000000 201.639420 0.000000
	CHANNELS 6 Xposition Yposition Zposition Xrotation Yrotation Zrotation
	JOINT mixamorig:Spine
	{
		OFFSET 0.006200 19.524994 -2.481800
		CHANNELS 3 Xrotation Yrotation Zrotation
		JOINT mixamorig:Spine1
		{
			OFFSET -0.000900 22.835007 -2.825400
			CHANNELS 3 Xrotation Yrotation Zrotation
			JOINT mixamorig:Spine2
			{
				OFFSET -0.020600 26.552490 -3.193300
				CHANNELS 3 Xrotation Yrotation Zrotation
				JOINT mixamorig:Neck
				{
					OFFSET -0.060000 30.701813 1.352200
					CHANNELS 3 Xrotation Yrotation Zrotation
					JOINT mixamorig:Head
					{
						OFFSET -0.087200 22.547607 3.670900
						CHANNELS 3 Xrotation Yrotation Zrotation
						JOINT mixamorig:HeadTop_End
						{
							OFFSET -0.830600 40.355194 7.893500
							CHANNELS 3 Xrotation Yrotation Zrotation
							End Site
							{
								OFFSET 0.000000 30.592346 0.000000
							}
						}
						JOINT mixamorig:RightEye
						{
							OFFSET -6.302100 18.118591 16.197100
							CHANNELS 3 Xrotation Yrotation Zrotation
							End Site
							{
								OFFSET 0.000000 30.592346 0.000000
							}
						}
						JOINT mixamorig:LeftEye
						{
							OFFSET 6.741500 18.382690 16.401899
							CHANNELS 3 Xrotation Yrotation Zrotation
							End Site
							{
								OFFSET 0.000000 30.592346 0.000000
							}
						}
					}
				}
				JOINT mixamorig:LeftShoulder
				{
					OFFSET 11.924900 18.230499 1.425400
					CHANNELS 3 Xrotation Yrotation Zrotation
					JOINT mixamorig:LeftArm
					{
						OFFSET 25.435989 -0.697632 -5.229300
						CHANNELS 3 Xrotation Yrotation Zrotation
						JOINT mixamorig:LeftForeArm
						{
							OFFSET 54.684776 0.000000 0.000000
							CHANNELS 3 Xrotation Yrotation Zrotation
							JOINT mixamorig:LeftHand
							{
								OFFSET 55.098175 0.000000 0.000000
								CHANNELS 3 Xrotation Yrotation Zrotation
								JOINT mixamorig:LeftHandMiddle1
								{
									OFFSET 23.369751 0.000000 0.000000
									CHANNELS 3 Xrotation Yrotation Zrotation
									JOINT mixamorig:LeftHandMiddle2
									{
										OFFSET 6.378677 0.000000 0.000000
										CHANNELS 3 Xrotation Yrotation Zrotation
										JOINT mixamorig:LeftHandMiddle3
										{
											OFFSET 6.148331 0.000000 0.000000
											CHANNELS 3 Xrotation Yrotation Zrotation
											JOINT mixamorig:LeftHandMiddle4
											{
												OFFSET 6.582504 0.000000 0.000000
												CHANNELS 3 Xrotation Yrotation Zrotation
												End Site
												{
													OFFSET -1.168900 6.395691 1.028606
												}
											}
										}
									}
								}
								JOINT mixamorig:LeftHandThumb1
								{
									OFFSET 7.235672 -3.848206 5.434273
									CHANNELS 3 Xrotation Yrotation Zrotation
									JOINT mixamorig:LeftHandThumb2
									{
										OFFSET 6.568451 -3.792297 3.792300
										CHANNELS 3 Xrotation Yrotation Zrotation
										JOINT mixamorig:LeftHandThumb3
										{
											OFFSET 6.063080 -3.500519 3.500518
											CHANNELS 3 Xrotation Yrotation Zrotation
											JOINT mixamorig:LeftHandThumb4
											{
												OFFSET 4.793182 -2.767334 2.767349
												CHANNELS 3 Xrotation Yrotation Zrotation
												End Site
												{
													OFFSET 0.101639 6.054260 1.275483
												}
											}
										}
									}
								}
								JOINT mixamorig:LeftHandIndex1
								{
									OFFSET 23.101074 -0.309540 4.992809
									CHANNELS 3 Xrotation Yrotation Zrotation
									JOINT mixamorig:LeftHandIndex2
									{
										OFFSET 6.226883 0.000000 0.000000
										CHANNELS 3 Xrotation Yrotation Zrotation
										JOINT mixamorig:LeftHandIndex3
										{
											OFFSET 6.094330 0.000000 0.000000
											CHANNELS 3 Xrotation Yrotation Zrotation
											JOINT mixamorig:LeftHandIndex4
											{
												OFFSET 5.482605 0.000000 0.000000
												CHANNELS 3 Xrotation Yrotation Zrotation
												End Site
												{
													OFFSET -1.427902 5.233032 0.797164
												}
											}
										}
									}
								}
								JOINT mixamorig:LeftHandRing1
								{
									OFFSET 22.299240 0.021149 -3.964172
									CHANNELS 3 Xrotation Yrotation Zrotation
									JOINT mixamorig:LeftHandRing2
									{
										OFFSET 6.321869 0.000000 0.000000
										CHANNELS 3 Xrotation Yrotation Zrotation
										JOINT mixamorig:LeftHandRing3
										{
											OFFSET 5.899796 0.000000 0.000000
											CHANNELS 3 Xrotation Yrotation Zrotation
											JOINT mixamorig:LeftHandRing4
											{
												OFFSET 6.517899 0.000000 0.000000
												CHANNELS 3 Xrotation Yrotation Zrotation
												End Site
												{
													OFFSET -1.637299 6.232208 0.980890
												}
											}
										}
									}
								}
								JOINT mixamorig:LeftHandPinky1
								{
									OFFSET 20.463791 -0.302338 -8.562233
									CHANNELS 3 Xrotation Yrotation Zrotation
									JOINT mixamorig:LeftHandPinky2
									{
										OFFSET 6.908646 0.000000 0.000000
										CHANNELS 3 Xrotation Yrotation Zrotation
										JOINT mixamorig:LeftHandPinky3
										{
											OFFSET 4.622849 0.000000 0.000000
											CHANNELS 3 Xrotation Yrotation Zrotation
											JOINT mixamorig:LeftHandPinky4
											{
												OFFSET 5.216080 0.000000 0.000000
												CHANNELS 3 Xrotation Yrotation Zrotation
												End Site
												{
													OFFSET -0.606308 5.116241 0.814926
												}
											}
										}
									}
								}
							}
						}
					}
				}
				JOINT mixamorig:RightShoulder
				{
					OFFSET -12.001300 18.284088 1.348900
					CHANNELS 3 Xrotation Yrotation Zrotation
					JOINT mixamorig:RightArm
					{
						OFFSET -25.308500 -0.751312 -5.164599
						CHANNELS 3 Xrotation Yrotation Zrotation
						JOINT mixamorig:RightForeArm
						{
							OFFSET -54.684429 0.000000 0.000000
							CHANNELS 3 Xrotation Yrotation Zrotation
							JOINT mixamorig:RightHand
							{
								OFFSET -55.150291 0.000000 0.000000
								CHANNELS 3 Xrotation Yrotation Zrotation
								JOINT mixamorig:RightHandMiddle1
								{
									OFFSET -23.317566 0.000000 0.000000
									CHANNELS 3 Xrotation Yrotation Zrotation
									JOINT mixamorig:RightHandMiddle2
									{
										OFFSET -6.378403 0.000000 0.000000
										CHANNELS 3 Xrotation Yrotation Zrotation
										JOINT mixamorig:RightHandMiddle3
										{
											OFFSET -6.148193 0.000000 0.000000
											CHANNELS 3 Xrotation Yrotation Zrotation
											JOINT mixamorig:RightHandMiddle4
											{
												OFFSET -6.583389 0.000000 0.000000
												CHANNELS 3 Xrotation Yrotation Zrotation
												End Site
												{
													OFFSET 1.171692 6.395905 1.029786
												}
											}
										}
									}
								}
								JOINT mixamorig:RightHandThumb1
								{
									OFFSET -7.190521 -3.860474 5.435846
									CHANNELS 3 Xrotation Yrotation Zrotation
									JOINT mixamorig:RightHandThumb2
									{
										OFFSET -6.567429 -3.791718 3.791708
										CHANNELS 3 Xrotation Yrotation Zrotation
										JOINT mixamorig:RightHandThumb3
										{
											OFFSET -6.062469 -3.500153 3.500166
											CHANNELS 3 Xrotation Yrotation Zrotation
											JOINT mixamorig:RightHandThumb4
											{
												OFFSET -4.792618 -2.767029 2.767022
												CHANNELS 3 Xrotation Yrotation Zrotation
												End Site
												{
													OFFSET -0.100327 6.053253 1.276754
												}
											}
										}
									}
								}
								JOINT mixamorig:RightHandIndex1
								{
									OFFSET -23.048981 -0.310791 4.992554
									CHANNELS 3 Xrotation Yrotation Zrotation
									JOINT mixamorig:RightHandIndex2
									{
										OFFSET -6.227539 0.000000 0.000000
										CHANNELS 3 Xrotation Yrotation Zrotation
										JOINT mixamorig:RightHandIndex3
										{
											OFFSET -6.095047 0.000000 0.000000
											CHANNELS 3 Xrotation Yrotation Zrotation
											JOINT mixamorig:RightHandIndex4
											{
												OFFSET -5.484772 0.000000 0.000000
												CHANNELS 3 Xrotation Yrotation Zrotation
												End Site
												{
													OFFSET 1.420593 5.237305 0.797056
												}
											}
										}
									}
								}
								JOINT mixamorig:RightHandRing1
								{
									OFFSET -22.246323 0.020569 -3.963762
									CHANNELS 3 Xrotation Yrotation Zrotation
									JOINT mixamorig:RightHandRing2
									{
										OFFSET -6.322128 0.000000 0.000000
										CHANNELS 3 Xrotation Yrotation Zrotation
										JOINT mixamorig:RightHandRing3
										{
											OFFSET -5.900024 0.000000 0.000000
											CHANNELS 3 Xrotation Yrotation Zrotation
											JOINT mixamorig:RightHandRing4
											{
												OFFSET -6.518356 0.000000 0.000000
												CHANNELS 3 Xrotation Yrotation Zrotation
												End Site
												{
													OFFSET 1.636398 6.232697 0.982186
												}
											}
										}
									}
								}
								JOINT mixamorig:RightHandPinky1
								{
									OFFSET -20.411011 -0.303314 -8.561701
									CHANNELS 3 Xrotation Yrotation Zrotation
									JOINT mixamorig:RightHandPinky2
									{
										OFFSET -6.907349 0.000000 0.000000
										CHANNELS 3 Xrotation Yrotation Zrotation
										JOINT mixamorig:RightHandPinky3
										{
											OFFSET -4.623840 0.000000 0.000000
											CHANNELS 3 Xrotation Yrotation Zrotation
											JOINT mixamorig:RightHandPinky4
											{
												OFFSET -5.218353 0.000000 0.000000
												CHANNELS 3 Xrotation Yrotation Zrotation
												End Site
												{
													OFFSET 0.602097 5.118835 0.816273
												}
											}
										}
									}
								}
							}
						}
					}
				}
			}
		}
	}
	JOINT mixamorig:LeftUpLeg
	{
		OFFSET 18.168400 -13.561905 -0.039000
		CHANNELS 3 Xrotation Yrotation Zrotation
		JOINT mixamorig:LeftLeg
		{
			OFFSET 0.577358 -80.825211 -3.695000
			CHANNELS 3 Xrotation Yrotation Zrotation
			JOINT mixamorig:LeftFoot
			{
				OFFSET -0.577356 -83.370262 -6.520700
				CHANNELS 3 Xrotation Yrotation Zrotation
				JOINT mixamorig:LeftToeBase
				{
					OFFSET 0.750401 -20.798306 25.135401
					CHANNELS 3 Xrotation Yrotation Zrotation
					JOINT mixamorig:LeftToe_End
					{
						OFFSET -0.000500 0.001200 19.917799
						CHANNELS 3 Xrotation Yrotation Zrotation
						End Site
						{
							OFFSET 0.000000 19.917805 0.000000
						}
					}
				}
			}
		}
	}
	JOINT mixamorig:RightUpLeg
	{
		OFFSET -18.162500 -13.585098 -0.041000
		CHANNELS 3 Xrotation Yrotation Zrotation
		JOINT mixamorig:RightLeg
		{
			OFFSET -0.595024 -80.945297 -3.631900
			CHANNELS 3 Xrotation Yrotation Zrotation
			JOINT mixamorig:RightFoot
			{
				OFFSET 0.595024 -83.218193 -6.561200
				CHANNELS 3 Xrotation Yrotation Zrotation
				JOINT mixamorig:RightToeBase
				{
					OFFSET -0.753601 -20.807106 25.115000
					CHANNELS 3 Xrotation Yrotation Zrotation
					JOINT mixamorig:RightToe_End
					{
						OFFSET 0.000299 0.001700 19.918200
						CHANNELS 3 Xrotation Yrotation Zrotation
						End Site
						{
							OFFSET 0.000000 19.918203 0.000000
						}
					}
				}
			}
		}
	}
}
MOTION
Frames: 4
Frame Time: 0.033333
151.596924 195.660980 427.051361 65.087584 -70.283152 65.606815 11.290759 2.525201 2.149455 10.359111 1.772003 1.172184 10.364112 1.752769 1.156504 3.759439 7.125862 5.809507 -5.709162 43.753577 -3.075955 -0.000001 -0.000001 -0.000001 -0.000001 -0.000001 -0.000001 -0.000001 -0.000001 -0.000001 -8.018050 -26.436136 -20.642847 -21.871128 -36.695779 -64.714588 0.000005 -27.977852 -0.000001 -49.893432 19.283152 50.001670 2.803018 7.898190 -83.761547 8.505574 5.216132 -117.020292 6.559344 5.808179 -96.964842 -0.000000 0.000000 0.000000 -21.746737 -12.442380 -7.060363 4.159983 -2.398961 2.917874 -12.601375 -17.368346 1.107899 -0.000002 -0.000000 -0.000000 16.510886 15.750286 -58.555902 7.442295 5.631267 -105.806816 3.781273 5.473930 -69.250400 -0.000003 -0.000001 0.000001 7.160532 8.332103 -84.922911 8.501344 5.218272 -116.973724 6.464404 5.818921 -96.027720 0.000002 0.000000 -0.000000 0.052994 7.916061 -87.034348 3.088036 5.159573 -61.779614 8.061311 5.418900 -112.229051 -0.000003 0.000001 0.000001 -8.161908 26.391434 24.727590 -33.279974 28.145405 53.540132 -0.000017 9.476166 0.000006 -63.303190 -28.919222 -12.527581 1.826338 -6.897297 89.248504 4.566234 -4.656271 88.879810 1.755234 -3.644086 51.425659 -0.000001 0.000000 -0.000000 15.235285 8.399422 -9.620221 3.489069 3.573645 -8.150003 -11.506201 -2.492400 -11.652982 -0.000002 -0.000000 -0.000001 -4.622593 -5.437386 80.369463 4.504478 -4.654646 88.119460 2.110020 -3.900158 56.814319 0.000001 -0.000001 -0.000001 4.003203 -7.297921 105.395529 4.269036 -4.641009 85.214055 3.895417 -4.594560 80.576206 -0.000001 -0.000001 0.000001 -8.213353 -13.849047 115.826143 0.530745 -2.161046 27.595236 2.282982 -4.007671 59.322023 0.000002 0.000005 0.000001 -39.975697 3.922526 7.813314 14.428122 -2.742885 -0.163195 4.519484 0.415247 -6.710798 -1.350133 4.557082 -3.181534 -0.000000 0.000002 0.000000 -42.073156 -6.880153 -9.950323 22.844247 5.541038 -1.523539 -0.589117 1.121987 6.141802 -2.336979 0.000009 0.000001 -0.000000 -0.000000 0.000000 
151.705597 195.701828 428.049530 65.441429 -70.091237 65.932028 11.307224 2.414709 2.055910 10.364603 1.736494 1.188622 10.370345 1.711324 1.175157 3.751200 7.126395 5.792962 -5.794564 43.726676 -2.980736 0.000001 0.000001 -0.000001 0.000001 0.000001 -0.000001 0.000001 0.000001 -0.000001 -8.103483 -26.569933 -20.804664 -22.213829 -36.966821 -64.606172 0.000021 -27.743093 0.000006 -49.772138 20.330212 51.148483 2.796664 7.899885 -83.815526 8.505401 5.216188 -117.018639 6.559328 5.808192 -96.964781 -0.000000 0.000001 0.000001 -22.793788 -12.064639 -8.350411 4.094025 -2.380700 2.943022 -12.319202 -18.295205 0.755095 0.000003 0.000002 -0.000003 16.477618 15.732207 -58.546189 7.447323 5.629850 -105.858056 3.786175 5.475770 -69.301551 -0.000002 -0.000000 -0.000002 7.157361 8.331144 -84.945171 8.503252 5.217323 -116.994543 6.464421 5.818903 -96.027720 0.000000 0.000000 -0.000000 0.127126 7.923039 -87.069974 3.085914 5.158448 -61.756002 8.058691 5.419972 -112.201327 0.000002 0.000001 -0.000002 -8.211661 26.478337 24.807338 -32.801277 27.980240 53.081942 0.000002 10.223647 -0.000019 -64.110239 -29.561762 -12.689597 1.631230 -6.783696 87.063137 4.540029 -4.655734 88.556982 1.749743 -3.639703 51.339066 0.000002 -0.000002 -0.000001 14.469708 9.928541 -10.185187 3.111064 3.699275 -9.018706 -9.994025 -3.140092 -11.473511 -0.000001 -0.000001 -0.000001 -4.836324 -5.158719 78.832069 4.315254 -4.644614 85.785455 1.952877 -3.792982 54.472190 0.000003 0.000001 0.000003 3.674823 -7.321065 103.755676 4.276371 -4.641604 85.304664 3.863791 -4.589219 80.181121 0.000005 -0.000001 0.000002 -8.497268 -13.625720 114.698615 0.529846 -2.159274 27.570514 2.322026 -4.030561 59.879551 -0.000006 -0.000002 -0.000002 -39.798317 4.136789 7.660193 13.677520 -2.573325 -0.356700 5.051607 0.360278 -6.862242 -1.421301 4.415475 -3.051118 -0.000001 0.000001 0.000000 -41.931467 -6.662307 -10.057873 22.057664 5.383204 -1.718468 0.035750 1.122630 6.638326 -2.307785 0.000024 -0.000001 0.000000 -0.000000 0.000000 
151.779999 195.744461 429.283630 65.637237 -69.900737 66.102789 11.328533 2.283216 1.990825 10.375966 1.664149 1.203115 10.382076 1.634216 1.191879 3.744860 7.120695 5.773565 -6.008201 43.638642 -2.867492 -0.000000 -0.000001 -0.000001 -0.000000 -0.000001 -0.000001 -0.000000 -0.000001 -0.000001 -8.103044 -26.668084 -20.767849 -22.455128 -36.828547 -64.634422 0.000008 -27.773489 0.000004 -49.458353 21.084029 51.774658 2.779875 7.894412 -83.731514 8.505446 5.216189 -117.019049 6.559341 5.808181 -96.964705 -0.000002 -0.000000 0.000001 -23.321164 -11.986759 -8.876491 4.586816 -1.838055 3.114461 -12.148476 -18.312598 0.723684 0.000001 -0.000004 -0.000000 16.463932 15.740147 -58.495127 7.445905 5.630244 -105.843521 3.784738 5.475237 -69.286750 0.000001 -0.000002 -0.000001 7.150814 8.332725 -84.874827 8.501499 5.218217 -116.975418 6.464424 5.818928 -96.027706 -0.000000 -0.000001 0.000002 0.120283 7.913566 -86.974720 3.079697 5.155107 -61.686669 8.052014 5.422673 -112.130772 -0.000001 0.000000 0.000001 -8.228080 26.375593 24.875406 -32.310490 27.595370 52.858749 -0.000005 11.212147 0.000007 -64.976942 -29.559785 -12.751594 1.450350 -6.651616 84.653740 4.515927 -4.655056 88.260258 1.746112 -3.636813 51.282109 0.000003 0.000001 0.000001 13.842388 12.467964 -10.442144 2.665489 3.776412 -9.781859 -8.418862 -4.123076 -11.046669 -0.000001 -0.000001 0.000002 -5.020132 -4.843066 77.093984 4.090974 -4.622705 83.009632 1.772350 -3.657641 51.694256 0.000001 -0.000002 0.000003 3.368831 -7.324249 102.111007 4.280682 -4.641975 85.358063 3.842973 -4.585584 79.920904 0.000000 -0.000001 -0.000000 -8.723162 -13.385198 113.618967 0.532200 -2.163805 27.633532 2.353324 -4.048506 60.323828 0.000003 0.000002 0.000003 -39.800168 4.244478 7.396410 13.396993 -2.567245 -0.551651 5.252667 0.350195 -6.721910 -1.474093 4.291315 -2.939949 0.000000 0.000001 0.000000 -41.697362 -6.541636 -10.284883 21.138944 5.301939 -1.905806 0.733567 1.129891 7.203876 -2.295004 -0.000035 0.000000 -0.000000 -0.000000 -0.000000 
151.802368 195.772034 430.708557 65.805314 -69.754284 66.239065 11.347618 2.184775 1.920449 10.387364 1.609604 1.193064 10.393859 1.574537 1.183727 3.771390 7.132519 5.760585 -6.159490 43.665106 -2.765691 -0.000002 -0.000001 0.000001 -0.000002 -0.000001 0.000001 -0.000002 -0.000001 0.000001 -8.153883 -26.623155 -20.907132 -22.091007 -36.678966 -64.301675 0.000017 -28.203540 0.000007 -49.038303 21.503485 52.082170 2.752786 7.881675 -83.509649 8.505631 5.216073 -117.021098 6.559340 5.808179 -96.964678 -0.000002 0.000001 -0.000000 -23.344733 -12.229500 -8.643226 5.656259 -0.686457 3.422261 -12.076729 -17.420370 1.008414 0.000000 -0.000001 -0.000001 16.469876 15.774192 -58.402885 7.438008 5.632456 -105.763314 3.777046 5.472336 -69.205963 -0.000000 0.000000 -0.000003 7.143129 8.337013 -84.712104 8.496130 5.220917 -116.916337 6.464418 5.818913 -96.027720 -0.000001 -0.000001 -0.000002 0.032479 7.887309 -86.748785 3.069362 5.149554 -61.571649 8.041304 5.427005 -112.017479 -0.000001 -0.000000 0.000001 -8.262674 26.325421 24.995941 -31.246790 26.931554 52.384809 0.000008 13.021892 0.000003 -66.550959 -29.011795 -13.084394 1.313246 -6.528259 82.465225 4.496766 -4.654409 88.023831 1.744390 -3.635424 51.254744 -0.000001 0.000001 -0.000000 13.420716 15.767886 -10.333366 2.228679 3.780734 -10.286285 -6.969726 -5.156059 -10.481175 -0.000001 0.000000 0.000001 -5.147086 -4.546299 75.451802 3.867018 -4.589755 80.221589 1.598094 -3.513286 48.908416 -0.000002 0.000002 -0.000003 3.155366 -7.308653 100.739006 4.287794 -4.642538 85.445817 3.832962 -4.583781 79.795618 0.000000 -0.000001 -0.000001 -8.842240 -13.231372 112.969348 0.534949 -2.169004 27.705950 2.370992 -4.058485 60.573546 0.000003 0.000000 -0.000003 -39.928688 4.387226 7.136260 13.490612 -2.694550 -0.819602 5.171206 0.365021 -6.303530 -1.431046 4.123417 -2.824560 0.000000 0.000002 0.000000 -41.357492 -6.453821 -10.567097 20.126520 5.266020 -2.089883 1.479515 1.146947 7.827806 -2.219276 0.000006 -0.000000 -0.000000 -0.000000 -0.000000 
